<?xml version="1.0" encoding="UTF-8" standalone="no"?>
<!-- Created with Inkscape (http://www.inkscape.org/) -->

<svg
   xmlns:dc="http://purl.org/dc/elements/1.1/"
   xmlns:cc="http://creativecommons.org/ns#"
   xmlns:rdf="http://www.w3.org/1999/02/22-rdf-syntax-ns#"
   xmlns:svg="http://www.w3.org/2000/svg"
   xmlns="http://www.w3.org/2000/svg"
   xmlns:sodipodi="http://sodipodi.sourceforge.net/DTD/sodipodi-0.dtd"
   xmlns:inkscape="http://www.inkscape.org/namespaces/inkscape"
   version="1.1"
   width="200"
   height="200"
   id="svg2"
   inkscape:version="0.48.4 r9939"
   sodipodi:docname="rabbit_temp.svg">
  <sodipodi:namedview
     pagecolor="#ffffff"
     bordercolor="#666666"
     borderopacity="1"
     objecttolerance="10"
     gridtolerance="10"
     guidetolerance="10"
     inkscape:pageopacity="0"
     inkscape:pageshadow="2"
     inkscape:window-width="1600"
     inkscape:window-height="818"
     id="namedview12"
     showgrid="true"
     inkscape:zoom="1"
     inkscape:cx="400.2086"
     inkscape:cy="192.22808"
     inkscape:window-x="-2"
     inkscape:window-y="32"
     inkscape:window-maximized="1"
     inkscape:current-layer="svg2">
    <inkscape:grid
       type="xygrid"
       id="grid2989"
       empspacing="5"
       visible="true"
       enabled="true"
       snapvisiblegridlinesonly="true" />
  </sodipodi:namedview>
  <defs
     id="defs4" />
  <metadata
     id="metadata7">
    <rdf:RDF>
      <cc:Work
         rdf:about="">
        <dc:format>image/svg+xml</dc:format>
        <dc:type
           rdf:resource="http://purl.org/dc/dcmitype/StillImage" />
        <dc:title></dc:title>
      </cc:Work>
    </rdf:RDF>
  </metadata>
  <path
     inkscape:connector-curvature="0"
     style="fill:#000000;fill-opacity:1;fill-rule:nonzero;stroke:none"
     id="path3100"
     d="m 257.58941,103.47906 c -1.27925,3.605 -0.0781,6.5775 -0.065,6.7413 0.0748,-0.082 0.38925,-3.0625 1.54888,-6.1963 1.11325,-3.2012 3.03175,-5.5312 3.07175,-5.515 0.0747,-0.099 -3.16938,1.1888 -4.55563,4.97" />
  <path
     inkscape:connector-curvature="0"
     style="fill:#000000;fill-opacity:1;fill-rule:nonzero;stroke:none"
     id="path3110"
     d="m 359.24741,158.33286 c -0.002,-0.001 0.002,-0.01 0.004,-0.01 -0.0125,0 -0.0162,0.01 -0.004,0.01" />
  <path
     inkscape:connector-curvature="0"
     style="fill:#000000;fill-opacity:1;fill-rule:nonzero;stroke:none"
     id="path3110-7"
     d="m 336.34202,-69.75116 c -0.004,-0.002 0.004,-0.0211 0.008,-0.0211 -0.0264,0 -0.0342,0.0211 -0.008,0.0211" />
  <path
     inkscape:connector-curvature="0"
     style="fill:#231f20;fill-opacity:1;fill-rule:nonzero;stroke:none"
     id="path3056"
     d="m 102.53003,119.33475 c 0,0 -4.225657,-7.72551 -10.311783,-1.77847 0,0 -5.168399,5.167 -0.710532,12.24599 0,0 4.035158,5.30883 10.037855,3.00898 0,0 -1.51562,6.95795 4.10887,10.60233 0,0 6.75631,4.03383 5.58832,11.42416 0,0 -1.39743,5.99853 -5.91649,4.68458 0,0 -4.53156,-3.33993 -6.82167,-0.16553 0,0 -2.219207,3.15917 -0.489449,9.30229 0,0 2.053739,9.00062 1.147137,14.01185 0,0 -0.133484,3.43033 -0.955256,4.9932 0,0 -4.799925,10.84569 1.366846,11.79823 0,0 10.532862,1.63795 11.205852,-4.50379 0,0 0.8746,-4.86526 -2.16776,-8.31639 0,0 -1.48085,-6.65761 -1.28758,-11.07243 0,0 -0.86349,-3.64717 2.27483,-4.95421 0,0 16.02524,-6.24602 19.64049,-20.8725 0,0 10.71641,2.11907 8.79336,6.57417 0,0 -0.6563,2.13577 -2.71003,2.79352 0,0 -3.5346,1.47947 -2.30263,4.68591 0,0 4.11025,8.79192 7.47799,14.29821 0,0 4.73873,10.04901 10.76784,10.76512 0,0 9.0395,1.31537 9.4497,-5.1767 0,0 -0.16409,-4.02684 -5.50631,-5.17686 0,0 -11.01257,-3.78207 -9.94328,-14.70977 0,0 -0.0834,-2.46671 2.54735,-4.27432 0,0 5.01266,-1.72698 5.91647,-6.41156 0,0 2.35131,-8.92685 -8.38179,-18.98278 0,0 -5.08635,-4.62884 -2.37354,-7.9146 0,0 7.93406,-13.60159 7.97299,-28.895456 0,0 6.9774,-16.548071 -10.77203,-25.244117 0,0 -5.28798,-4.769338 -4.97235,-13.355528 0,0 0.62711,-15.818062 -3.25093,-27.15324 0,0 -4.09911,-8.744708 -4.18254,-14.331638 0,0 -0.48252,-17.39626748 -10.44389,-15.9557279 0,0 -8.92269,1.3195659 -4.03515,12.3363049 0,0 0.62987,2.358254 4.52599,7.596179 0,0 5.91786,13.23178 5.34223,21.121349 0,0 -3.20646,12.738156 -2.71145,15.121434 0,0 -0.082,2.629394 1.0665,4.27294 0,0 -7.56003,-0.246118 -9.61515,-7.315303 0,0 -2.05373,-6.490744 -1.80761,-8.380407 0,0 0.0834,-6.163981 -4.27155,-9.370419 0,0 -2.92834,-3.919749 -7.135936,-2.799035 0,0 -4.206188,0.560368 -5.439542,6.168168 0,0 -0.985846,3.616622 -5.588321,5.261555 0,0 -10.192201,3.203662 -7.233273,15.28413 0,0 0.57566,3.369125 2.796251,5.342209 0,0 -8.349815,-1.311226 -22.731515,1.48364 0,0 -26.017218,5.589722 -22.418656,9.640182 0,0 10.958344,5.313015 28.629917,-0.02933 0,0 13.159476,-3.294046 16.282483,-6.252978 0,0 -1.243081,2.719768 -10.938877,8.882363 0,0 -14.88228,8.914352 -20.303746,26.502515 0,0 -0.280879,7.23186 24.294411,-15.363401 0,0 9.451072,-9.45107 10.934716,-17.981647 0,0 5.827487,4.666442 12.524024,2.159409 0,0 3.038194,-1.809009 6.244634,0.984453 0,0 3.03957,2.630781 4.35498,5.589721 0,0 -2.79348,-0.821764 -7.23188,3.451166 0,0 -11.668892,14.87393 -15.615056,17.996949 0,0 -3.943396,3.94618 -11.671667,3.28847 0,0 -10.845721,-2.46531 -10.518952,4.68314 0,0 -0.585397,7.14429 6.809157,7.63785 0,0 13.737914,1.40305 20.807107,-6.157 0,0 15.285511,-16.436831 22.927581,-13.643365 0,0 6.57555,2.384665 5.5897,10.356275 0,0 -0.73973,3.77932 -4.19226,3.12161 0,0 -9.28702,-2.54733 -14.46515,7.06778" />
  <path
     inkscape:connector-curvature="0"
     style="fill:#000000;fill-opacity:1;fill-rule:nonzero;stroke:none"
     id="path3058"
     d="m 253.92457,-92.4508 c 0.004,0 0.0114,0 0.0114,0 -0.0114,0 -0.0114,-0.003 -0.0114,0" />
  <path
     inkscape:connector-curvature="0"
     style="fill:#000000;fill-opacity:1;fill-rule:nonzero;stroke:none"
     id="path3064"
     d="m 153.63077,-317.72433 c 0.0154,0.003 0.022,-0.003 0.022,-0.0199 -0.004,0.0128 -0.0128,0.022 -0.022,0.0199" />
</svg>
