<?xml version="1.0" standalone="no"?>
<!DOCTYPE svg PUBLIC "-//W3C//DTD SVG 20010904//EN"
 "http://www.w3.org/TR/2001/REC-SVG-20010904/DTD/svg10.dtd">
<svg version="1.0" xmlns="http://www.w3.org/2000/svg"
 width="1053.000000pt" height="1053.000000pt" viewBox="0 0 1053.000000 1053.000000"
 preserveAspectRatio="xMidYMid meet">
<metadata>
Created by potrace 1.11, written by Peter Selinger 2001-2013
</metadata>
<g transform="translate(0.000000,1053.000000) scale(0.100000,-0.100000)"
fill="#000000" stroke="none">
<path d="M5734 10520 c-54 -11 -134 -52 -177 -89 -76 -67 -114 -192 -96 -318
24 -172 96 -331 250 -558 51 -74 82 -136 122 -240 143 -369 217 -667 217 -877
0 -75 -7 -127 -34 -240 -112 -470 -132 -709 -69 -831 8 -16 12 -31 10 -33 -2
-3 -37 2 -76 10 -146 31 -289 123 -360 234 -64 100 -146 405 -161 597 -17 222
-67 330 -220 479 -128 124 -182 151 -305 151 -78 0 -97 -4 -146 -28 -62 -30
-136 -103 -167 -163 -11 -21 -29 -71 -41 -111 -41 -137 -134 -232 -298 -302
-110 -47 -155 -75 -229 -144 -67 -62 -115 -136 -152 -235 -24 -61 -26 -80 -26
-212 0 -119 4 -160 23 -229 26 -97 68 -185 112 -236 l31 -35 -53 4 c-286 27
-698 0 -1074 -69 -149 -28 -466 -107 -662 -166 -416 -124 -635 -243 -608 -330
20 -62 345 -136 641 -146 297 -10 529 22 904 126 420 116 666 206 800 293 l35
23 -32 -41 c-66 -84 -239 -220 -492 -388 -197 -130 -285 -200 -440 -351 -282
-274 -496 -592 -625 -927 -59 -154 -61 -163 -36 -188 63 -63 256 23 561 251
244 183 652 538 772 670 236 263 408 536 478 760 18 57 33 105 35 107 1 2 23
-11 49 -27 77 -49 186 -89 286 -107 112 -19 220 -9 328 32 81 31 181 30 247
-4 81 -41 234 -205 285 -303 l19 -39 -29 0 c-46 0 -146 -35 -202 -71 -91 -58
-145 -111 -255 -249 -261 -327 -500 -605 -635 -738 -199 -197 -375 -263 -656
-247 -233 14 -371 12 -428 -8 -134 -46 -189 -151 -165 -319 25 -171 122 -283
275 -316 202 -44 584 -6 811 80 166 63 232 107 418 287 345 332 557 495 786
605 122 59 205 80 290 74 91 -7 152 -39 236 -122 107 -107 143 -197 144 -357
0 -97 -13 -139 -60 -193 -47 -53 -84 -61 -206 -46 -157 20 -265 3 -400 -61
-100 -47 -208 -144 -275 -247 -46 -70 -48 -72 -60 -50 -7 12 -35 47 -63 77
-66 70 -150 111 -226 111 -151 0 -317 -157 -359 -340 -39 -169 20 -376 137
-480 127 -113 288 -157 425 -116 l47 14 -7 -72 c-16 -197 74 -385 237 -496 80
-54 179 -164 222 -246 107 -203 83 -429 -57 -553 -73 -64 -144 -69 -238 -17
-171 95 -296 62 -349 -92 -33 -98 -32 -256 4 -412 65 -278 87 -538 64 -750
-17 -155 -23 -181 -85 -360 -75 -214 -77 -378 -8 -457 47 -53 85 -65 223 -71
201 -8 333 26 414 107 57 57 71 102 71 225 0 134 -28 231 -91 319 -25 36 -33
65 -55 192 -31 179 -50 497 -35 556 18 67 60 102 203 172 455 223 796 581 923
970 l29 88 35 -6 c127 -24 303 -101 371 -162 72 -65 84 -113 48 -193 -27 -60
-63 -96 -130 -130 -100 -51 -151 -131 -135 -212 18 -88 398 -807 536 -1013 78
-117 229 -264 311 -304 121 -59 301 -64 440 -12 152 57 219 203 155 335 -41
84 -114 139 -230 173 -131 38 -302 154 -397 266 -115 137 -164 282 -157 469 6
164 43 225 179 299 153 82 236 182 265 320 40 187 -27 454 -170 674 -70 107
-116 163 -257 312 -176 184 -216 295 -149 414 235 417 401 972 426 1424 4 71
14 145 25 180 48 156 61 351 34 508 -52 301 -232 540 -535 712 -47 27 -96 58
-108 69 -44 38 -139 193 -172 277 -58 150 -70 235 -70 499 0 605 -73 1102
-208 1425 -120 286 -165 456 -188 700 -31 341 -101 559 -225 698 -85 96 -218
142 -335 117z"/>
</g>
</svg>
